PathFileType	3	(X/Y/Z)	F:\ViconData\AntennenMessung\Messung1\Session1\ID02.trc
DataRate	CameraRate	NumFrames	NumMarkers	Units	OrigDataRate	OrigDataStartFrame	OrigNumFrames
120.0	120.0	4	70	mm	120.0	232	924	
Frame#	Time	Ashort			Along			Atop			A4			Bshort			Blong			Btop			B4			Cshort			Clong			Ctop			C4			Dshort			Dlong			Dtop			D4			Eshort			Elong			Etop			E4			Fshort			Flong			Ftop			F4			Gshort			Glong			Gtop			G4			Hshort			Hlong			Htop			H4			I1			I2			I3			I4			I5			WandAshort			WandAlong			WandAtop			WandA4			WandA15			WandBshort			WandB4			WandB5			WandBtop			WandBlong			WandCshort			WandClong			WandCtop			WandC4			WandC5			Acenter			Aantenna			Bcenter			Bantenna			Ccenter			Cantenna			Dcenter			Dantenna			Ecenter			Eantenna			Fcenter			Fantenna			Gcenter			Gantenna			Hcenter			Hantenna			Icenter			Iantenna			
		X1	Y1	Z1	X2	Y2	Z2	X3	Y3	Z3	X4	Y4	Z4	X5	Y5	Z5	X6	Y6	Z6	X7	Y7	Z7	X8	Y8	Z8	X9	Y9	Z9	X10	Y10	Z10	X11	Y11	Z11	X12	Y12	Z12	X13	Y13	Z13	X14	Y14	Z14	X15	Y15	Z15	X16	Y16	Z16	X17	Y17	Z17	X18	Y18	Z18	X19	Y19	Z19	X20	Y20	Z20	X21	Y21	Z21	X22	Y22	Z22	X23	Y23	Z23	X24	Y24	Z24	X25	Y25	Z25	X26	Y26	Z26	X27	Y27	Z27	X28	Y28	Z28	X29	Y29	Z29	X30	Y30	Z30	X31	Y31	Z31	X32	Y32	Z32	X33	Y33	Z33	X34	Y34	Z34	X35	Y35	Z35	X36	Y36	Z36	X37	Y37	Z37	X38	Y38	Z38	X39	Y39	Z39	X40	Y40	Z40	X41	Y41	Z41	X42	Y42	Z42	X43	Y43	Z43	X44	Y44	Z44	X45	Y45	Z45	X46	Y46	Z46	X47	Y47	Z47	X48	Y48	Z48	X49	Y49	Z49	X50	Y50	Z50	X51	Y51	Z51	X52	Y52	Z52	X53	Y53	Z53	X54	Y54	Z54	X55	Y55	Z55	X56	Y56	Z56	X57	Y57	Z57	X58	Y58	Z58	X59	Y59	Z59	X60	Y60	Z60	X61	Y61	Z61	X62	Y62	Z62	X63	Y63	Z63	X64	Y64	Z64	X65	Y65	Z65	X66	Y66	Z66	X67	Y67	Z67	X68	Y68	Z68	X69	Y69	Z69	X70	Y70	Z70	
232	1.925	-1038.2112	214.39456	-1644.2412	-1109.2292	203.43683	-1599.5742	-1063.5831	173.13957	-1625.6174	-1053.9801	261.94202	-1634.9973	-1353.0249	234.79225	1003.96	-1281.2627	226.96312	1052.3846	-1323.0532	194.17276	1020.8092	-1284.465	287.87091	1052.6941	813.91797	187.6949	1209.4227	892.34851	178.39796	1179.2407	844.66284	145.17917	1198.2588	860.61658	292.50763	1167.272	1115.8138	209.76244	-1401.71	1056.3224	194.0571	-1460.1324	1095.0155	162.17673	-1423.9747	1069.8809	238.67706	-1425.9417	-1204.4741	1685.9424	-1563.3214	-1129.0793	1688.2067	-1606.0485	-1173.0891	1724.3829	-1581.9769	-1133.5212	1581.0571	-1603.4548	-1239.6844	1699.2352	1119.2546	-1309.4163	1698.8579	1071.7767	-1270.3231	1736.1368	1096.6414	-1244.6451	1593.854	1106.4846	988.87885	1664.2954	1162.2764	957.45502	1700.3721	1183.5691	922.12256	1662.2261	1214.7393	939.81262	1659.3801	1159.8668	999.24377	1668.5826	-1579.5292	1058.9392	1670.1635	-1518.6155	1025.0839	1707.9994	-1551.1204	1059.3112	1672.1682	-1585.5309	-542.02112	1144.1117	-298.20825	-545.73468	1145.1703	-213.93423	-544.12494	1181.5449	-260.91559	-575.70392	1142.4417	-262.77481	-496.06903	1146.1727	-258.86765																																														-1068.8236	209.67122	-1624.9873	-1074.3606	248.2704	-1624.3217	-1321.8285	231.38876	1025.0111	-1320.5538	270.12183	1029.3844	848.40662	183.60672	1196.1505	852.18268	222.3652	1194.0242	1088.6637	202.595	-1428.3722	1082.6439	240.90155	-1432.5397	-1171.8647	1686.9218	-1581.8014	-1170.5907	1647.9429	-1581.6189	-1271.0013	1699.0657	1097.932	-1271.7144	1660.0958	1099.2888	952.89685	1705.6051	1186.6576	972.85205	1733.7338	1168.4485	1026.6062	1669.3073	-1551.6082	1028.1394	1630.3405	-1552.0995	-543.68573	1144.5862	-260.43195	-543.22229	1105.5923	-259.92172
233	1.9333333	-1038.1987	214.39075	-1644.2451	-1109.2716	203.41998	-1599.5615	-1063.5609	173.14708	-1625.6558	-1053.9788	261.97101	-1634.9899	-1353.0234	234.76888	1003.9556	-1281.3118	227.24083	1052.2677	-1323.0157	194.15308	1020.8391	-1284.6105	287.82135	1052.8058	813.93439	187.66124	1209.4187	892.38379	178.41267	1179.3295	844.3576	145.51051	1198.1301	860.60254	292.40775	1167.2128	1115.8102	209.77362	-1401.7054	1056.2942	194.08641	-1460.1924	1095.0015	162.16283	-1423.9225	1069.8568	238.61739	-1425.9536	-1204.5365	1686.0104	-1563.1805	-1129.0756	1688.2283	-1606.0804	-1173.0953	1724.3779	-1581.9679	-1133.5026	1581.0773	-1603.4723	-1239.6649	1699.2111	1119.2456	-1309.4067	1698.8413	1071.7621	-1270.33	1736.1799	1096.6487	-1244.6226	1594.0044	1106.4261	988.91943	1664.3013	1162.2983	957.46704	1700.3569	1183.6013	922.00342	1662.2302	1214.7611	939.81512	1659.3816	1159.9048	999.25421	1668.5715	-1579.4958	1058.9276	1670.1509	-1518.6215	1025.0767	1708.0157	-1551.1228	1059.3097	1672.179	-1585.527	-542.03967	1144.1167	-298.21103	-545.73413	1145.1771	-213.91597	-544.13647	1181.5682	-260.92587	-575.70538	1142.4785	-262.75507	-496.05991	1146.1813	-258.89191																																														-1068.7927	209.66826	-1625.0106	-1074.3224	248.26823	-1624.3289	-1321.8634	231.4978	1024.9479	-1320.668	270.24564	1029.2112	848.14783	183.62775	1196.2961	852.00244	222.39195	1194.4309	1088.6918	202.62579	-1428.3547	1082.7179	240.93639	-1432.5513	-1171.8722	1686.9703	-1581.7502	-1170.5977	1647.9918	-1581.5236	-1270.9949	1699.0449	1097.9146	-1271.6929	1660.0737	1099.2432	952.82867	1705.6742	1186.7428	972.80249	1733.8243	1168.5876	1026.594	1669.295	-1551.6057	1028.1211	1630.328	-1552.0918	-543.69501	1144.5918	-260.44135	-543.22949	1105.598	-259.93039
234	1.9416667	-1038.1982	214.31779	-1644.2897	-1109.1882	203.18005	-1599.61	-1063.6223	172.57596	-1625.4711	-1054.1176	262.02682	-1634.92	-1352.9657	234.82495	1003.9371	-1281.1971	226.93318	1052.3712	-1323.0565	194.14828	1020.8066	-1284.4893	287.93448	1052.6821	813.99225	187.59933	1209.4355	892.19788	178.3877	1179.2737	844.43481	145.45	1198.2235	860.72839	292.25317	1167.272	1115.8125	209.78329	-1401.7112	1056.2832	194.05026	-1460.1501	1095.0074	162.17242	-1423.8647	1069.8595	238.65611	-1425.9558	-1204.4816	1685.9562	-1563.3291	-1129.0815	1688.2036	-1606.0527	-1173.127	1724.3181	-1581.9016	-1133.5032	1581.0392	-1603.425	-1239.6671	1699.2085	1119.2419	-1309.5237	1699.0535	1071.8469	-1270.3224	1736.1473	1096.6431	-1244.681	1593.7378	1106.6223	988.90155	1664.3119	1162.2758	957.48334	1700.3749	1183.6415	922.64081	1661.9734	1214.6958	939.79364	1659.3572	1159.8883	999.26733	1668.5491	-1579.4922	1058.9471	1670.1598	-1518.6178	1025.0747	1708.0048	-1551.1217	1059.3103	1672.1792	-1585.5316	-542.02936	1144.0995	-298.21399	-545.73578	1145.1594	-213.92702	-544.1524	1181.5574	-260.92847	-575.70703	1142.4611	-262.76813	-496.01306	1146.1477	-258.54599																																														-1069.0393	209.47908	-1624.8788	-1074.7028	248.0607	-1624.2595	-1321.7797	231.39568	1024.9835	-1320.4518	270.13025	1029.3274	848.16632	183.57405	1196.2555	851.96051	222.33743	1194.2546	1088.6993	202.61754	-1428.3276	1082.7249	240.92468	-1432.5548	-1171.9375	1686.9261	-1581.7693	-1170.6975	1647.946	-1581.6317	-1271.1027	1699.1387	1097.9141	-1271.9243	1660.1703	1099.2524	953.20911	1705.2808	1186.548	973.07227	1733.4218	1168.2576	1026.6099	1669.287	-1551.6022	1028.155	1630.3206	-1552.0858	-543.69025	1144.5745	-260.44302	-543.20312	1105.5808	-259.93118
235	1.95	-1038.2317	214.42162	-1644.2159	-1109.1877	203.13634	-1599.5905	-1063.6021	172.59749	-1625.4886	-1054.1299	262.09378	-1634.9969	-1353.1195	234.74371	1003.9809	-1281.2595	226.93889	1052.326	-1323.0203	194.15016	1020.8161	-1284.4905	287.87714	1052.7166	813.98511	187.61151	1209.4348	892.26031	178.47876	1179.2421	844.64819	145.2442	1198.2194	860.70526	292.224	1167.3098	1115.8071	209.7531	-1401.7081	1056.2845	194.07007	-1460.1595	1095.0753	162.21849	-1423.9272	1069.8981	238.69023	-1425.9321	-1204.4816	1685.9352	-1563.3088	-1129.0629	1688.194	-1606.0461	-1173.0808	1724.365	-1581.9716	-1133.543	1581.0939	-1603.4961	-1239.691	1699.2627	1119.2645	-1309.4083	1698.86	1071.7756	-1270.3124	1736.136	1096.6385	-1244.6938	1593.7909	1106.4075	988.87146	1664.2717	1162.2522	957.33618	1700.3298	1183.5859	922.69904	1661.9952	1214.7847	939.82428	1659.3756	1159.9207	999.27246	1668.5647	-1579.5098	1058.8201	1670.0022	-1518.6455	1025.088	1708.0078	-1551.1195	1059.3167	1672.1755	-1585.5361	-542.02222	1144.109	-298.21463	-545.73621	1145.1746	-213.92651	-544.15155	1181.558	-260.91968	-575.73169	1142.3688	-262.79727	-496.05878	1146.1771	-258.87793																																														-1069.0588	209.51866	-1624.8281	-1074.7601	248.09354	-1624.1379	-1321.8206	231.34428	1025.0377	-1320.5715	270.07559	1029.4338	848.3385	183.60332	1196.1838	852.06805	222.37003	1194.1265	1088.7264	202.61784	-1428.3015	1082.7059	240.92645	-1432.4492	-1171.8589	1686.9121	-1581.7949	-1170.5874	1647.9332	-1581.6113	-1270.9885	1699.0819	1097.9456	-1271.6998	1660.1127	1099.3203	953.02856	1705.2551	1186.5	972.7666	1733.408	1168.0928	1026.5476	1669.223	-1551.6315	1028.0142	1630.254	-1552.1459	-543.68701	1144.5865	-260.43188	-543.19714	1105.5931	-259.91742
